<svg xmlns="http://www.w3.org/2000/svg" width="650" height="187">
  <g fill="none" fill-rule="evenodd" stroke="#6C6C6C" stroke-width="2">
    <g fill-opacity=".5" fill-rule="nonzero">
      <path fill="#F0F" d="M51.8 57.6c.7 0 1.4.3 2 .8.6.4 1.2 1 1.6 1.9a14.8 14.8 0 0 1 2.1 8.3c6.4-5.5 13.2-9.8 18.3-9.8 2.5 0 5 1.5 6.8 3.8a14 14 0 0 1 2.8 8.4c0 3.4-2.7 8.5-7.8 17.3-4.8 7.7-10 17.5-10 23 0 1.5.3 2.6.7 3.4.3.5.8.8 1.4.8 2.2 0 4.8-2 7.5-4.8a70 70 0 0 0 9.5-13.4c.6-4.5 2-9.2 4.6-14A53.8 53.8 0 0 1 105 65.4a27.3 27.3 0 0 1 16.6-7.1c2.3 0 4.2.3 5.9 1.3 4.4 2.6 7.5 5.1 9.8 8.3 1 1.5 1.7 4 1.7 6.2a30 30 0 0 1-8.5 18.3c-4.3 4.6-10 8-16.3 8-3.4 0-6.9-1-10.2-2.9-.7 2.6-1 5.2-1 7.5 0 3.2.6 5.9 1.8 7.8a5 5 0 0 0 4.5 2.6c11.1 0 20.8-10.6 27-19.6a53 53 0 0 1 18.6-31.4 25 25 0 0 1 15-5.4c4.7 0 7.7 1.8 10.8 6l2.3 2.5.7.8c3.4 3.6 5.3 6.9 4.5 15.5a6 6 0 0 1 3 1c.5.5.7 1.1.6 1.8 0 .5-.3 1.1-.8 1.7a7.2 7.2 0 0 1-4 2.4c-3.4 12.9-13.4 27.7-25.1 31.7a18 18 0 0 1-5.9 1c-5.3 0-11.2-2.2-15.8-8.2a25 25 0 0 1-2.6-4.5 40.9 40.9 0 0 1-28 12.9c-5 0-9.3-1-12.7-3a19.5 19.5 0 0 1-7.5-7.7c-5.6 6.2-14 11-21.3 11-5.2 0-9-1.4-11.6-3.6-2.7-2.5-4-6.1-4-10.6 0-8.4 7-22.7 13.1-32.3 1.7-2.7 3.2-5 4-6.6l.1-.2a54.4 54.4 0 0 0-15 12.4l-.3.3c-7.6 8-14 21-19.7 33.5l-.7 1.6-1 2.3c-.8 1.7-2 2.7-3.2 2.9-1.1.2-2.5-.2-4-1.7a12 12 0 0 1-3.6-9.1c0-2.4.4-5 1.4-8.3.8-2.5 2.4-6 4.5-10.3l.5-1c2.4-4.8 5.5-10.4 8.7-16L38 76a316 316 0 0 1 10-16c1.2-1.7 2.5-2.5 3.8-2.5Zm111.4 19.6a49.8 49.8 0 0 0-13.6 31c0 2.3.3 3.7 1 4.6.3.7 1 1 1.7 1 1.8 0 4.2-1.6 6.8-4.2a52 52 0 0 0 8-11.4c2.2-3.6 3.9-7.1 4.8-10.1a20.4 20.4 0 0 1-8.7-11Zm-37.5-8.3h-.5a8 8 0 0 0-2.1 1 36 36 0 0 0-6 5.2 66.2 66.2 0 0 0-10.4 14.7 4 4 0 0 0 2 .5c3.5 0 8-4.4 10.9-8.3 2.2-3 4.2-6.3 5.3-9a19 19 0 0 0 1-3.2c0-.4 0-.8-.2-1Zm49.7 1.6c-.3 0-.6.3-.8.6a4 4 0 0 0-.5 2c0 2 .4 4.6 1.2 6.5a22 22 0 0 0 1.4-7 3 3 0 0 0-.4-1.6 1 1 0 0 0-1-.5Z"/>
      <path fill="#0FF" d="M626.7 23.2c.8 0 1.5.4 2.2 1 .6.6 1 1.5 1.5 2.5.8 2 1.5 4.1 1.5 6.4 0 4.2-2 10.4-6.1 17.7-3.3 6.2-7 13-11 19.8l-1.2 2.2-.5 1-1.2 2-1 2a464.3 464.3 0 0 0-14.2 26.3c-1.7 3.8-2.6 7-2.6 9.4 0 .9 0 1.6.3 2 .1.3.4.4.6.4 2.3 0 5-2.1 7.6-5.1a73 73 0 0 0 9.6-14.6l1.4-1.9a3 3 0 0 1 2-.7 3 3 0 0 1 2 .7c.4.5.9 1 1.3 2 .8 1.4 1.6 6-.6 10.7a33 33 0 0 1-10.4 12 23 23 0 0 1-13 4.8c-4.1 0-7.6-.8-10-2.5-2-1.3-3.5-3.2-4.3-5.9-4.8 4.5-10.5 8-17 8-3 0-5.7-.8-7.9-2.2-2-1.2-3.4-2.8-4.6-4.8a27.7 27.7 0 0 1-18.3 7.3c-5-.2-9-2-11.7-4.8-2.9-3-4.4-7.3-4.4-12.1 0-2.6.5-5.6 1.3-8.4A72 72 0 0 1 530.9 77c-2.6.8-5 1.2-7.3 1.4a107.1 107.1 0 0 1-17.4 31.9c-6.3 7.3-13.5 12.3-21.2 12.9a16 16 0 0 1-10-2.3 11.8 11.8 0 0 1-4.7-6.2 25.3 25.3 0 0 1-17 8.2c-3.4 0-6.4-1-8.7-2.6-2-1.5-3.5-3.5-4.5-6-5 5.5-11.8 9.5-18.3 9.5-4.1 0-7.5-.8-10-2.5-2-1.3-3.5-3.2-4.3-5.9-4.7 4.5-10.5 8-17 8-3.2 0-6-.9-8.2-2.4-2-1.3-3.5-3-4.6-5.3a30 30 0 0 1-18.5 8.3c-5.3 0-9-1.4-11.6-3.6-2.8-2.5-4.1-6.1-4.1-10.6 0-8.4 7-22.7 13.2-32.3l4-6.6v-.2c-2.6 1-8.5 5.3-14.8 12.4l-.4.3c-8.4 8.9-15.2 23.7-21.4 37.4-.7 1.7-1.9 2.7-3.1 2.9-1.2.2-2.5-.2-4-1.7a12 12 0 0 1-2-2.6 24.3 24.3 0 0 1-13.3 4.6c-3.9 0-7-1-9.4-2.7a12.3 12.3 0 0 1-4.4-6.1c-4.6 4-11.1 8.2-17 8.2-3.4 0-6.3-1-8.6-2.5-2-1.5-3.6-3.4-4.6-5.8a28 28 0 0 1-18.4 8.4 15.8 15.8 0 0 1-14.4-9.4 34.6 34.6 0 0 1-37.7 6.8 22 22 0 0 1-9.6-9.5c-1.8-3-2.7-7-2.7-10.6 0-4.9 1.6-9.6 5.2-12.7 2-1.6 3.6-2 4.8-1.6a3 3 0 0 1 1.9 1.5c4.8-6.2 9.6-13.3 13.2-19.3.7-5.7 2.6-9.4 6.3-12.4a13 13 0 0 1 8.1-3.3 5 5 0 0 1 3.3 1c.7.6 1.2 1.5 1.2 2.9.1 1.9-.8 4.7-3.2 8.5l-.3 6.2c0 5.3.5 10.4 1 15.1.5 5 .9 9.7.7 14 0 2.7-.5 5.7-1.4 8.5 3.4-2.7 6-5.8 8.2-9.7.5-2.2 1.3-4.5 2.3-7A318 318 0 0 1 240.6 63c-4.3-.8-6.8-2.6-8-4.3-.6-1-1-1.7-1-2.4-.3-.9-.1-1.6.3-2.2.3-.6 1-1 1.8-1.3a8 8 0 0 1 2.7-.3c3.3.2 7.1 0 10.4-.2 4-7 6.9-11.6 9.8-16l.6-.8.6-.8c1.5-2.2 2.8-3.1 4-3.3a3 3 0 0 1 2.1.7c.6.4 1.1 1 1.6 2 1.2 2 1.9 4.7 1.9 6.7 0 2.6-.6 5.9-2 9.8 4.3 1 6.7 3.3 7.8 5.2.5.8.7 1.6.8 2.3a3 3 0 0 1-.6 2.1c-.7.9-2 1.5-4.4 1.2a44 44 0 0 0-9.4.4A470.2 470.2 0 0 0 240 98a28 28 0 0 0-2.7 11c0 2.1.4 4 1 5.2.3.5.7 1 1 1.2.4.3.8.4 1.2.4 2.4 0 5-1.8 7.8-4.5 3.1-3.1 6.2-7.6 8.9-12.6a47 47 0 0 1 7.3-15.2c12.5-18 25.4-25.2 33.4-25.2 2.9 0 5.2.7 7 2a9 9 0 0 1 3.4 3.6l2-3.1c1-1.8 2.4-2.7 3.7-3 1.4-.2 3 .4 4.1 1.8a13 13 0 0 1 2.8 8.6c0 3-.8 6.5-2.6 10.2-1.2 2.6-3.3 5.9-5.5 9.5-5 8.3-11.3 18.4-11.3 25.4 0 .9.1 1.6.4 2.1 0 .2.1.3.3.4l.5.2c3.5 0 7.9-4.8 11.8-10.5l.2-.8c1.7-5 6.4-14.2 11.8-23.8l.7-1.2c3.8-6.8 8-13.7 11.9-19.4 1.2-1.8 2.6-2.6 3.8-2.6.7 0 1.5.3 2.1.8.6.4 1.1 1 1.6 1.9a14.8 14.8 0 0 1 2 8.3c6.4-5.5 13.2-9.8 18.4-9.8 2.5 0 5 1.5 6.7 3.8a14 14 0 0 1 2.9 8.4c0 3.4-2.8 8.5-7.8 17.3-4.8 7.7-10 17.5-10 23 0 1.5.2 2.6.7 3.4.3.5.7.8 1.4.8 4.4 0 10.9-7.8 16-16.4a46 46 0 0 1 7.2-15.5c12.2-17.7 25.3-25 33.4-25 2.9 0 5.2.7 7 1.8 1.2.8 2.2 1.8 3 3.1a686 686 0 0 1 2.7-5l.7-1.3 1.4-2.5.7-1.3a370 370 0 0 1 16.2-27c1.7-2.3 3.2-3.2 4.4-3.2.8 0 1.6.4 2.3 1a16.5 16.5 0 0 1 3 8.8c0 4.3-2 10.5-6.2 17.8-3.2 6.2-7 13-10.9 19.8l-1.2 2.2-.6 1-1.1 2-1.1 2a464.3 464.3 0 0 0-14.2 26.3c-1.7 3.8-2.6 7-2.6 9.4 0 .9 0 1.6.3 2 .2.3.4.4.7.4 2.2 0 4.9-2.1 7.5-5.1a73 73 0 0 0 9.7-14.6c.5-1 1.1-1.7 1.7-2.1 1.4-3.6 3.3-7.3 5.8-11 12.6-18 25.3-24.9 33.6-24.9 2.8 0 5 .7 6.7 1.8a10 10 0 0 1 3.3 3.5l1.4-2.2.5-.6a7.4 7.4 0 0 1 3.9-2.8c1.2-.2 2.5.2 3.8 1.6 1.8 2 3 5 3 8.6 0 2.9-.6 6.2-2.4 9.9a81 81 0 0 1-4 7.6l-2.6 4.5-.8 1.4-.7 1.3-.6 1c-2 3.6-4 7-5.3 10.1a29.6 29.6 0 0 0-2.3 8.4c0 1 .2 1.8.5 2.3 5-.1 10-4.6 14.9-11.5s9.6-16.2 13-26.6a9 9 0 0 1-3-2.9c-1-1.3-1.3-3-1.3-4.7 0-4 2.2-8.6 5-12.5 3.4-4.4 7.6-7.6 10.3-7.8 2-.1 3.4.5 4.3 1.6a7 7 0 0 1 1.5 4.7 44 44 0 0 1-2.1 11.6c3.7-1.2 7.8-3.2 11.6-5.8 1.7-1.2 3-1.8 4.3-1.9 1.1 0 2.3.5 3.6 1.9 2.3 2.4 4.7 6.7 4.7 11 0 2-.8 4.3-2.5 6.6a89.3 89.3 0 0 0-16.7 25.4c-.8 2.2-1 4.5-1 6.4 0 1.8.2 3.2.8 4.2.4.7 1 1.2 1.7 1.3 2.2.1 4.8-1.6 7.4-4.3 3.1-3 6.2-7.4 8.7-12.3a48.8 48.8 0 0 1 7.3-15.4c12.2-17.7 25.3-25 33.4-25 2.8 0 5.1.7 7 1.8 1.2.8 2.2 1.8 2.9 3.1a708 708 0 0 1 4.8-8.8l.7-1.3c6.2-11 12.5-21.7 16.3-27 1.6-2.3 3.2-3.2 4.4-3.2ZM593 70h-.2c-4.3.3-13.7 9.5-21.3 21.6a40 40 0 0 0-7 19.3c0 1.3.2 2.4.6 3.1 0 .2.2.4.8.6 2.2 0 5-2 8-5.5a128.5 128.5 0 0 0 18.4-33.7c.6-2 1-3.6 1-4.6 0-.3 0-.6-.2-.8h-.1Zm-173.1 0h-.2c-4.3.3-13.7 9.5-21.3 21.6a40 40 0 0 0-6.9 19.3c0 1.3.1 2.4.5 3.1.1.2.2.4.8.6 2.3 0 5-2 8-5.5a128.5 128.5 0 0 0 18.4-33.7c.7-2 1-3.6 1-4.6 0-.3 0-.6-.2-.8h-.1Zm-120.4-.3c-3 0-13 9.7-20.5 21.7a42 42 0 0 0-7 19.6c0 1.3 0 2.3.4 3 0 .3.2.4.7.6 4.9 0 11.5-9.4 18.7-21.6a54.2 54.2 0 0 0 8.6-21.4c0-.7 0-1.3-.3-1.7 0-.2-.3-.2-.6-.2Zm-99.2 17.4a489 489 0 0 1-10.7 16c.9 3.4 2.1 6.4 3.5 8.4 1.2 1.8 2.5 3 3.8 3 .5 0 .8-.3 1.2-.8.5-.7.9-1.7 1.2-3a51 51 0 0 0 1.2-12.8c0-3.7 0-7.4-.2-10.8Zm282-17.5C478 69.9 468.6 79 461 91a40 40 0 0 0-6.8 19.5c0 1.2.1 2.3.4 3 0 .3.1.4.3.6 2.3 0 5-2 8-5.4 3.4-3.8 7.2-9.4 11-16.1a55 55 0 0 0 8.5-21.2c0-.9 0-1.5-.2-2Z"/>
    </g>
    <path stroke-linecap="square" d="M19.4 144.6H596"/>
    <path fill="#FF0" fill-opacity=".5" fill-rule="nonzero" d="m611 125.6-.6 14.7 13.9 5-14.2 3.9-.4 14.7-8.1-12.3-14.2 4.2 9.2-11.5-8.3-12.2 13.8 5.2 9-11.7Z"/>
  </g>
</svg>
