<svg xmlns="http://www.w3.org/2000/svg" width="650" height="187">
  <g fill="none" fill-rule="evenodd">
    <path fill="#FFF" fill-rule="nonzero" d="M629.5 27.12a15.46 15.46 0 0 1 1.38 5.96c0 4.13-1.99 10.1-5.97 17.28A825.54 825.54 0 0 1 614 70.1l-1.23 2.16-.58 1.02-1.14 2.03-1.11 1.96c-5.35 9.48-10.5 18.77-14.14 26.44-1.84 3.97-2.76 7.34-2.76 9.78 0 2.3.62 3.37 2 3.37 5.35 0 12.86-10.1 18.07-20.18 1.53-2.9 3.52-2.75 4.9 0 .76 1.37 1.38 5.65-.62 9.93-4.13 8.26-13.63 16.2-22.51 16.2-7.5 0-12.56-2.6-13.78-9.32-4.75 4.9-10.72 8.87-17.46 8.87-5.96 0-10.13-2.96-12.23-7.63-5.2 5.04-12.35 8.14-18.56 7.93-9.8-.3-15.16-7.03-15.16-15.9 0-2.44.46-5.34 1.22-8.1 2.3-7.64 9.2-16.96 15.17-24a30.59 30.59 0 0 1-11.18 2.76c-7.5 21.1-21.45 43.56-37.99 44.79-7.96.45-12.86-3.37-14.09-9.48-4.75 5.04-10.87 9.17-17.46 9.17-6.7 0-11.13-3.65-12.9-9.44-4.84 5.8-11.92 10.36-18.65 10.36-7.5 0-12.56-2.6-13.78-9.33-4.75 4.9-10.72 8.87-17.46 8.87-6.26 0-10.54-3.26-12.52-8.33-5.31 5.12-12.57 8.94-18.88 8.94-10.26 0-14.7-5.2-14.7-13.15 0-8.25 7.04-22.32 13.02-31.8 3.21-5.04 5.66-9.01 4.6-9.01-1.39 0-8.9 4.28-17.32 13.76-8.42 8.86-15.31 23.84-21.6 37.6-1.06 2.45-3.05 3.36-5.5.92a11.3 11.3 0 0 1-2.4-3.4c-4.1 3.07-8.87 5.08-13.53 5.08-7.66 0-12.1-3.97-13.33-9.63-4.44 4.28-11.33 9.02-17.46 9.02-6.63 0-11.03-3.54-12.9-9-4.65 4.66-11.28 9.15-18.8 9.15-6.14 0-11.66-3.76-14-10.15-6.04 6.45-14.4 9.95-23.22 10.3-9.19.31-18.38-2.14-23.59-11.77-.43-.74-.8-1.53-1.14-2.36-4.36 6.06-9.87 11.02-15.86 13.06-1.37.46-3.21.92-5.51.92-5.05 0-10.72-2.14-15-7.8a20.43 20.43 0 0 1-3.08-5.74c-6.8 7.84-17.68 13.56-28.33 13.7-10 .1-16.84-4.47-20.02-11.45-5.34 6.46-14.06 11.75-21.48 11.75-10.26 0-14.7-5.2-14.7-13.15 0-8.25 7.04-22.32 13.01-31.8 3.22-5.04 5.67-9.01 4.6-9.01-1.38 0-8.89 4.28-17.3 13.76-7.65 8.04-14.04 21.12-19.84 33.75l-.71 1.55-1.05 2.3c-1.08 2.45-3.07 3.36-5.52.92a11.14 11.14 0 0 1-3.37-8.4c0-2.3.46-4.9 1.38-7.96.84-2.47 2.42-6 4.47-10.13l.48-.97c2.45-4.86 5.5-10.46 8.73-16.05l.67-1.16a308.2 308.2 0 0 1 9.85-15.87c2-2.9 4.29-2.75 5.82 0 1.38 2.3 2 4.74 2 7.19 0 1.07 0 2.14-.16 3.05 6.58-6.11 13.94-11.15 19.45-11.15 4.44 0 8.58 5.35 8.58 11.15 0 3.37-2.76 8.26-7.66 16.82-4.9 7.8-10.11 17.89-10.11 23.54 0 3.21 1.07 5.2 3.06 5.2 5 0 12.51-9.12 17.98-18.9a40.27 40.27 0 0 1 4.54-13.97c7.96-16.2 20.37-24.3 29.25-24.3 2.14 0 3.83.3 5.36 1.22 4.29 2.45 7.35 4.9 9.5 7.95a11.1 11.1 0 0 1 1.53 5.66c0 9.17-10.26 25.22-23.74 25.22-3.68 0-7.35-1.07-10.88-3.36a32.3 32.3 0 0 0-1.37 9.01c0 6.73 2.75 11.47 7.35 11.47 11.44 0 21.55-10.94 27.86-20.31.88-5.28 3-10.84 5.99-16.23 6.89-12.23 16.54-19.87 26.64-19.87 4.45 0 7.2 1.68 10.11 5.66 1.06 1.24 2.12 2.25 3.1 3.25l.27.28.14.15.27.29c2.6 2.84 4.38 6.12 3.42 15.14 1.61 0 2.62.22 3.17.59 3.9-5.67 7.73-11.48 10.77-16.5.61-5.5 2.45-9.01 5.97-11.92 2.45-2.14 5.2-3.2 7.5-3.2 4.14 0 5.06 3.36.31 11.15-.15 1.84-.3 4.44-.3 6.42 0 10.86 1.99 20.8 1.68 29.05-.15 3.82-.92 8.1-2.6 11.46 4.9-3.34 8.58-7.14 11.28-12.2.5-2.15 1.26-4.5 2.35-7.06 3.06-7.49 8.88-19.57 15-30.57-4.74-.61-7.5-2.3-8.72-4.13-2.15-3.2-.61-4.74 2.9-4.59 3.53.16 7.67 0 11.04-.3 4.11-7.16 7.08-11.9 10.09-16.32l.56-.83.55-.8.28-.4c2.3-3.36 4.14-3.2 5.82-.3a13.74 13.74 0 0 1 1.69 6.27c0 2.75-.62 6.26-2.45 10.54 4.74.62 7.35 3.06 8.42 4.9 1.53 2.75.46 4.58-3.22 4.12-2.75-.3-6.73 0-10.1.46-5.82 9.94-14.55 25.07-19.91 36.7-1.84 4.12-2.76 8.1-2.76 11.46 0 4.58 1.53 7.8 4.13 7.8 5.39 0 12.39-7.83 17.64-17.76a45.89 45.89 0 0 1 7.18-14.96c12.25-17.58 24.8-24.77 32.62-24.77 5.51 0 8.88 2.76 10.26 6.73l2.9-4.74c1.85-3.06 4.45-3.2 6.29-1.07 2.6 3.06 3.98 9.78 0 17.73-3.98 8.41-16.85 25.07-16.85 35.32 0 2.29.61 3.67 2.15 3.67 3.76 0 8.52-4.84 12.77-11.07l.24-.86c1.68-4.92 6.28-14.08 11.7-23.68l.65-1.15a329.43 329.43 0 0 1 11.85-19.35c2-2.9 4.3-2.75 5.82 0 1.38 2.3 2 4.74 2 7.19 0 1.07 0 2.14-.16 3.05 6.59-6.11 13.94-11.15 19.45-11.15 4.44 0 8.58 5.35 8.58 11.15 0 3.37-2.76 8.26-7.66 16.82-4.9 7.8-10.1 17.89-10.1 23.54 0 3.21 1.06 5.2 3.06 5.2 4.67 0 11.55-8 16.9-17.03a48.64 48.64 0 0 1 7.14-15.38c11.95-17.27 24.66-24.46 32.62-24.46 5.21 0 8.58 2.14 9.8 6.12 1.2-2.23 2.43-4.53 3.7-6.84l.7-1.27 1.4-2.54.7-1.26C439.98 42.9 446.3 32.23 450 26.97c2.76-3.82 4.9-3.52 6.44.15a15.46 15.46 0 0 1 1.37 5.96c0 4.13-1.99 10.1-5.97 17.28a825.54 825.54 0 0 1-10.9 19.74l-1.23 2.16-.57 1.02-1.15 2.03-1.11 1.96c-5.34 9.48-10.49 18.77-14.14 26.44-1.84 3.97-2.76 7.34-2.76 9.78 0 2.3.62 3.37 2 3.37 5.36 0 12.86-10.1 18.07-20.18a4.3 4.3 0 0 1 1.7-1.93c1.3-3.6 3.21-7.33 5.8-11.07 12.26-17.58 24.66-24.46 32.78-24.46 5.2 0 8.42 2.6 9.8 6.42 1.23-1.98 2.3-3.51 2.91-4.43 2-2.44 4.14-3.2 6.13-1.07 1.68 1.84 2.75 4.59 2.75 7.95 0 2.75-.6 5.96-2.3 9.48-1.83 4.13-4.28 7.8-6.58 12.07l-.76 1.34-.76 1.33c-2.3 3.98-4.6 7.87-5.98 11.25-1.23 3.36-2.3 6.57-2.3 8.7 0 2.46.76 3.83 2.3 3.68 8.88-.92 21.28-18.35 28.33-39.9-3.37-1.68-4.6-4.13-4.6-7.19 0-7.8 9.5-18.95 14.4-19.26 3.22-.15 4.75 1.99 4.75 5.35 0 3.52-1.07 7.95-2.6 13 4.28-1.07 9.19-3.37 13.63-6.42 2.9-1.99 4.44-2.45 6.58-.16 2.15 2.3 4.44 6.27 4.44 10.25 0 1.83-.76 3.97-2.3 6.11-6.73 7.64-14.39 18.2-16.84 25.68a21.92 21.92 0 0 0-1.07 6.73c0 3.82 1.22 6.27 3.52 6.42 4.77.4 12.08-7.53 17.09-17.14a48.7 48.7 0 0 1 7.1-15.27c11.96-17.27 24.67-24.46 32.63-24.46 5.2 0 8.58 2.14 9.8 6.12 1.84-3.44 3.8-7.05 5.8-10.65l.7-1.26c6.14-10.99 12.47-21.66 16.17-26.92 2.76-3.82 4.9-3.52 6.43.15Zm-58.96 63.9c-4.6 7.19-7.05 14.83-7.05 19.87 0 2.76.62 4.74 2.3 4.74 4.9 0 12.25-8.56 19.15-21.86 8.27-15.74 11.02-24.61 8.11-24.76-4.29-.16-14.4 9.17-22.51 22.01Zm-173.07 0c-4.6 7.19-7.05 14.83-7.05 19.87 0 2.76.62 4.74 2.3 4.74 4.9 0 12.25-8.56 19.15-21.86 8.27-15.74 11.02-24.61 8.11-24.76-4.28-.16-14.4 9.17-22.51 22.01ZM299.45 68.7c-3.06 0-13.63 9.63-21.44 22.17-4.6 7.18-7.2 15.28-7.2 20.18 0 2.75.61 4.58 2.14 4.58 5.06 0 12.1-9.32 19.6-22.16 5.98-10.4 8.74-17.89 8.74-21.86 0-1.84-.3-2.9-1.84-2.9ZM200.97 84a500.5 500.5 0 0 1-12.56 18.95c1.84 7.19 5.05 12.54 8.42 12.54 3.22 0 4.6-7.64 4.6-17.58 0-4.9-.15-9.78-.46-13.91Zm281.5-15.44c-4.13 0-14.24 9.17-22.36 22.01-4.6 7.34-6.9 14.83-6.9 20.03 0 2.6.47 4.58 1.7 4.58 5.05 0 12.4-8.86 19.9-22 5.82-10.25 8.58-17.74 8.58-21.72 0-1.98-.3-2.9-.92-2.9Zm-318.72 6.73a49.14 49.14 0 0 0-8.73 11.46c-3.98 7.34-6.43 15.9-6.43 21.55 0 4.6 1.38 6.43 3.67 6.43 3.99 0 10.11-5.66 15.78-16.06 2.3-3.97 4.14-7.8 5.05-11-4.9-3.06-8.11-7.03-9.34-12.38ZM105.4 90.26a6.2 6.2 0 0 0 3.37 1.07c3.67 0 8.57-4.59 11.64-8.72 4.44-5.96 7.66-13.14 5.97-14.52-2.3-1.83-13.63 7.5-20.98 22.17Zm81.92-.61h-.03c-.27.1-.56.17-.86.24.06.25.1.53.14.82l.75-1.06Zm-11.93-20.18c-.92 0-2.3 1.22-2.3 3.66 0 2.76.77 6.73 2.45 8.72a25.54 25.54 0 0 0 2.15-9.17c0-2.3-1.23-3.21-2.3-3.21Z"/>
    <g fill-opacity=".5" fill-rule="nonzero" stroke="#6C6C6C" stroke-width="2">
      <path fill="#F0F" d="M51.77 57.63c.73 0 1.44.24 2.1.75a6.02 6.02 0 0 1 1.55 1.88 14.77 14.77 0 0 1 2.12 8.35c6.32-5.54 13.12-9.77 18.3-9.77 2.5 0 4.95 1.45 6.75 3.8a13.94 13.94 0 0 1 2.83 8.35c0 3.46-2.75 8.5-7.8 17.32-4.8 7.65-9.97 17.5-9.97 23.04 0 1.4.2 2.55.67 3.33.32.54.78.87 1.4.87 2.14 0 4.75-1.96 7.46-4.8 3.3-3.47 6.7-8.35 9.55-13.41a41.28 41.28 0 0 1 4.61-14.12c3.8-7.72 8.59-13.62 13.53-17.73 5.74-4.77 11.7-7.11 16.61-7.11 2.35 0 4.2.36 5.87 1.36 4.44 2.53 7.59 5.07 9.8 8.23a12.2 12.2 0 0 1 1.72 6.24c0 5.25-3.21 12.72-8.5 18.33-4.3 4.57-9.94 7.89-16.24 7.89-3.46 0-6.92-.9-10.27-2.82a30.89 30.89 0 0 0-.98 7.47c0 3.2.63 5.92 1.85 7.82 1.06 1.65 2.58 2.65 4.5 2.65 11.08 0 20.79-10.63 26.9-19.7.92-5.31 3.07-10.9 6.07-16.33 3.58-6.34 7.89-11.47 12.6-14.99 4.67-3.48 9.74-5.39 14.92-5.39 4.78 0 7.77 1.77 10.9 6.04.76.9 1.53 1.66 2.25 2.4.27.25.52.51.77.77 3.34 3.62 5.24 6.91 4.49 15.6 1.56.12 2.47.52 2.96.98.53.5.71 1.11.62 1.79a3.68 3.68 0 0 1-.84 1.72 7.15 7.15 0 0 1-3.95 2.36c-3.45 12.87-13.42 27.74-25.15 31.74-1.46.49-3.4.97-5.83.97-5.32 0-11.29-2.23-15.8-8.19a21.36 21.36 0 0 1-2.63-4.48c-7 7.41-17.6 12.7-27.97 12.82-5.05.06-9.33-1.05-12.77-3.01A19.45 19.45 0 0 1 89.3 113c-5.58 6.15-14.03 10.96-21.26 10.96-5.27 0-9.07-1.33-11.6-3.6-2.78-2.48-4.1-6.1-4.1-10.55 0-8.38 7.1-22.69 13.17-32.33 1.69-2.65 3.17-5 4.02-6.62l.1-.21h-.01c-2.7 1.02-8.55 5.33-14.9 12.4l-.33.37c-7.6 8-13.92 20.99-19.67 33.51l-.71 1.54-1.05 2.3c-.74 1.68-1.87 2.7-3.15 2.9-1.13.2-2.5-.2-3.98-1.68-2.33-2.32-3.67-5.14-3.67-9.12 0-2.37.47-5.07 1.42-8.24a92.28 92.28 0 0 1 4.54-10.3l.48-.96a311.8 311.8 0 0 1 8.76-16.1l.67-1.16c3.27-5.61 6.7-11.17 9.89-15.93 1.24-1.82 2.62-2.56 3.86-2.56ZM163.24 77.2a49.79 49.79 0 0 0-7.34 10.03c-3.9 7.17-6.31 15.54-6.31 21.07 0 2.16.29 3.65.92 4.56a2 2 0 0 0 1.75.87c1.89 0 4.25-1.49 6.82-4.1 2.6-2.66 5.4-6.5 8.1-11.46a54.3 54.3 0 0 0 4.74-10.07c-4.27-2.81-7.22-6.35-8.68-10.9Zm-37.5-8.33c-.12-.1-.35.01-.58.07a7.9 7.9 0 0 0-2.08 1 33.25 33.25 0 0 0-5.97 5.16 66.18 66.18 0 0 0-10.38 14.76c.71.33 1.37.48 2.04.48 3.46 0 7.98-4.47 10.83-8.31 2.24-3 4.16-6.32 5.27-9.02.5-1.23.85-2.33.94-3.19.04-.38.15-.78-.06-.95Zm49.65 1.6c-.28 0-.57.31-.8.69-.3.47-.5 1.14-.5 1.98 0 1.94.38 4.54 1.25 6.48a23.31 23.31 0 0 0 1.35-6.93 3 3 0 0 0-.43-1.72c-.23-.33-.56-.5-.87-.5Z"/>
      <path fill="#0FF" d="M626.72 23.23c.78.02 1.52.35 2.2 1.05a7.85 7.85 0 0 1 1.5 2.46 16.46 16.46 0 0 1 1.46 6.34c0 4.24-2 10.38-6.1 17.76a827.41 827.41 0 0 1-10.9 19.75l-1.23 2.16-.57 1.02-1.15 2.03-1.11 1.96c-5.33 9.46-10.47 18.72-14.1 26.37-1.76 3.8-2.67 7.02-2.67 9.36 0 .91.08 1.6.35 2.04.14.24.36.33.64.33 2.27 0 4.9-2.1 7.57-5.08 3.4-3.8 6.84-9.18 9.62-14.57.44-.84.93-1.45 1.41-1.87.64-.55 1.3-.78 1.95-.78.66 0 1.32.24 1.94.79a6.1 6.1 0 0 1 1.37 1.87c.83 1.52 1.58 6.15-.59 10.82-2.24 4.48-6 8.85-10.37 12-4.05 2.92-8.63 4.78-13.05 4.78-4.13 0-7.54-.78-10.07-2.48a10.72 10.72 0 0 1-4.27-5.9c-4.72 4.5-10.49 7.92-16.9 7.92-3.12 0-5.77-.77-7.94-2.12a13.34 13.34 0 0 1-4.59-4.88c-5.3 4.7-12.23 7.5-18.29 7.3-5.06-.15-9-1.95-11.72-4.8-2.88-3.02-4.41-7.25-4.41-12.1 0-2.52.47-5.52 1.26-8.36 2.03-6.75 7.54-14.77 12.92-21.44a30.28 30.28 0 0 1-7.26 1.42c-4.14 11.48-10.17 23.3-17.46 31.88-6.26 7.39-13.45 12.37-21.16 12.94-4.17.24-7.53-.63-10.04-2.32a11.83 11.83 0 0 1-4.64-6.2c-4.76 4.65-10.66 8.22-16.95 8.22a14.5 14.5 0 0 1-8.75-2.64 13.73 13.73 0 0 1-4.52-5.87c-4.97 5.4-11.8 9.43-18.28 9.43-4.13 0-7.54-.78-10.06-2.48-2-1.35-3.46-3.27-4.27-5.9-4.73 4.5-10.5 7.92-16.91 7.92a14.6 14.6 0 0 1-8.25-2.32 13.55 13.55 0 0 1-4.62-5.33c-5.39 4.81-12.4 8.26-18.53 8.26-5.26 0-9.06-1.33-11.6-3.6-2.77-2.48-4.1-6.1-4.1-10.55 0-8.38 7.1-22.69 13.17-32.33 1.7-2.65 3.17-5 4.02-6.62l.1-.21h-.01c-2.7 1.02-8.54 5.33-14.9 12.4l-.33.37c-8.38 8.82-15.2 23.7-21.43 37.36-.74 1.67-1.87 2.68-3.15 2.9-1.13.18-2.5-.21-3.98-1.7-.8-.8-1.49-1.66-2.04-2.6-4.07 2.8-8.68 4.58-13.18 4.58-3.94 0-7.07-1-9.41-2.7a12.27 12.27 0 0 1-4.44-6.08c-4.6 4.1-11.12 8.17-16.94 8.17-3.46 0-6.34-.91-8.63-2.5a13.73 13.73 0 0 1-4.66-5.73c-4.74 4.42-11.19 8.38-18.41 8.38a15.4 15.4 0 0 1-9.11-2.94 16.4 16.4 0 0 1-5.23-6.43c-6.12 5.94-14.27 9.18-22.85 9.52-5.16.18-10.33-.5-14.83-2.76a22.01 22.01 0 0 1-9.67-9.53 21.65 21.65 0 0 1-2.72-10.57c0-4.88 1.67-9.59 5.26-12.68 1.92-1.63 3.59-2.02 4.82-1.63a3.3 3.3 0 0 1 1.84 1.53c4.83-6.24 9.6-13.35 13.23-19.35.67-5.69 2.63-9.33 6.3-12.36 2.67-2.31 5.66-3.44 8.15-3.44 1.39 0 2.46.35 3.21.97a3.72 3.72 0 0 1 1.28 2.91c.06 1.9-.88 4.73-3.21 8.6-.14 1.8-.28 4.22-.28 6.1 0 5.32.48 10.41.93 15.2.47 5 .9 9.66.75 13.89-.11 2.78-.54 5.8-1.4 8.54a31.11 31.11 0 0 0 8.13-9.69 44.1 44.1 0 0 1 2.38-7.08c2.96-7.23 8.48-18.72 14.36-29.42-4.3-.8-6.8-2.54-8-4.33a6.86 6.86 0 0 1-1.07-2.34 2.9 2.9 0 0 1 .34-2.23c.37-.58.98-1.04 1.86-1.3a7.8 7.8 0 0 1 2.66-.27c3.3.14 7.15.01 10.38-.26 4-6.94 6.91-11.59 9.87-15.94l.57-.83.55-.8c1.51-2.2 2.87-3.13 4.01-3.26a2.9 2.9 0 0 1 2.15.64 6.8 6.8 0 0 1 1.63 1.98 14.85 14.85 0 0 1 1.82 6.78c0 2.6-.52 5.85-2.05 9.77 4.38.9 6.82 3.34 7.88 5.16.49.87.74 1.65.8 2.32a2.9 2.9 0 0 1-.56 2.12c-.7.89-2.1 1.48-4.44 1.19-2.56-.29-6.2-.02-9.37.39-5.8 9.92-14.34 24.75-19.62 36.18-1.77 3.98-2.66 7.8-2.66 11.05 0 2.13.34 3.95 1 5.22.29.52.62.94 1.02 1.22.32.23.7.35 1.11.35 2.4 0 5.1-1.76 7.8-4.5 3.13-3.13 6.24-7.6 8.9-12.62a46.95 46.95 0 0 1 7.3-15.18c12.56-18.01 25.46-25.18 33.44-25.18 2.87 0 5.2.7 7.02 1.9 1.44.95 2.57 2.2 3.38 3.69l1.91-3.11c1.1-1.82 2.44-2.72 3.74-2.94 1.45-.25 2.94.31 4.16 1.73 1.55 1.82 2.73 4.84 2.73 8.63 0 2.99-.73 6.47-2.6 10.2a117.5 117.5 0 0 1-5.44 9.49c-5.05 8.26-11.3 18.34-11.3 25.38 0 .88.09 1.61.34 2.13a1 1 0 0 0 .31.4c.14.1.3.14.5.14 3.54 0 7.9-4.74 11.85-10.5l.2-.72c1.7-4.98 6.33-14.21 11.8-23.88l.65-1.16a330.46 330.46 0 0 1 11.89-19.41c1.25-1.82 2.62-2.56 3.86-2.56.73 0 1.44.24 2.1.75a6.02 6.02 0 0 1 1.55 1.88 14.77 14.77 0 0 1 2.12 8.35c6.33-5.54 13.12-9.77 18.3-9.77 2.5 0 4.95 1.45 6.75 3.8a13.94 13.94 0 0 1 2.83 8.35c0 3.46-2.75 8.5-7.8 17.32-4.8 7.65-9.97 17.5-9.97 23.04 0 1.4.2 2.55.67 3.33.32.54.78.87 1.4.87 4.47 0 10.9-7.89 15.97-16.42a49.74 49.74 0 0 1 7.25-15.56c12.25-17.7 25.31-24.89 33.44-24.89 2.82 0 5.13.6 6.91 1.71a8.68 8.68 0 0 1 3 3.1 686 686 0 0 1 2.72-5.01l.7-1.27 1.4-2.54.7-1.27c6.16-11.02 12.51-21.73 16.23-27.02 1.67-2.31 3.2-3.18 4.46-3.15.78.02 1.53.35 2.2 1.05a7.85 7.85 0 0 1 1.5 2.46 16.46 16.46 0 0 1 1.46 6.34c0 4.24-2 10.38-6.1 17.76a827.41 827.41 0 0 1-10.9 19.75l-1.23 2.16-.57 1.02-1.15 2.03-1.1 1.96c-5.34 9.46-10.47 18.72-14.11 26.37-1.76 3.8-2.67 7.02-2.67 9.36 0 .91.08 1.6.35 2.04.14.24.36.33.65.33 2.27 0 4.89-2.1 7.56-5.08 3.4-3.8 6.84-9.18 9.62-14.57a5.79 5.79 0 0 1 1.77-2.14 49.7 49.7 0 0 1 5.8-10.96c12.56-18.02 25.3-24.89 33.6-24.89 2.73 0 4.95.67 6.7 1.82 1.37.9 2.45 2.1 3.24 3.5l1.48-2.2.46-.68c1.28-1.6 2.59-2.5 3.85-2.71 1.28-.23 2.59.16 3.84 1.51 1.83 2 3.02 4.97 3.02 8.63 0 2.88-.63 6.23-2.4 9.91a81.06 81.06 0 0 1-4.07 7.64 130.3 130.3 0 0 0-2.53 4.48l-.77 1.36-.77 1.33-.54.94c-2.1 3.6-4.12 7.1-5.37 10.17-1.18 3.23-2.23 6.3-2.23 8.35 0 1 .12 1.8.44 2.3 5.02-.07 10.05-4.6 14.91-11.44 4.91-6.92 9.6-16.26 13.07-26.61a8.93 8.93 0 0 1-3.1-2.88 8.6 8.6 0 0 1-1.28-4.79c0-3.86 2.18-8.53 5.07-12.4 3.31-4.43 7.5-7.68 10.26-7.85 1.95-.1 3.36.52 4.32 1.6.97 1.1 1.49 2.72 1.49 4.74 0 3.19-.85 7.1-2.13 11.54a44.72 44.72 0 0 0 11.6-5.79c1.74-1.2 3.07-1.83 4.26-1.86 1.2-.03 2.32.47 3.61 1.85 2.3 2.45 4.71 6.7 4.71 10.93 0 2-.8 4.35-2.48 6.7-6.71 7.61-14.3 18.01-16.71 25.41a20.89 20.89 0 0 0-1.02 6.4c0 1.74.25 3.16.8 4.16.4.74 1 1.22 1.79 1.27 2.13.18 4.73-1.56 7.4-4.24 3.06-3.06 6.16-7.45 8.68-12.27a49.8 49.8 0 0 1 7.23-15.47c12.24-17.7 25.3-24.89 33.44-24.89 2.82 0 5.13.6 6.91 1.71a8.68 8.68 0 0 1 3 3.1c1.54-2.88 3.17-5.85 4.82-8.82l.7-1.27c6.16-11.02 12.51-21.73 16.23-27.02 1.67-2.31 3.2-3.18 4.46-3.15Zm-33.85 46.78h-.15c-4.32.29-13.72 9.5-21.34 21.54-4.47 7-6.89 14.43-6.89 19.34 0 1.27.12 2.37.48 3.11.1.22.23.4.82.63 2.25 0 5-2.09 8-5.51 3.29-3.76 6.83-9.2 10.26-15.8 4.05-7.72 6.77-13.77 8.14-17.93.66-2.02 1-3.56.99-4.61 0-.33-.03-.6-.16-.77h-.15ZM419.8 70h-.15c-4.32.29-13.72 9.5-21.33 21.54-4.48 7-6.9 14.43-6.9 19.34 0 1.27.13 2.37.49 3.11.1.22.22.4.81.63 2.25 0 5-2.09 8-5.51 3.3-3.76 6.83-9.2 10.26-15.8 4.05-7.72 6.77-13.77 8.14-17.93.66-2.02 1-3.56.99-4.61 0-.33-.03-.6-.16-.77h-.15Zm-120.35-.3c-2.98 0-13.1 9.65-20.6 21.69-4.47 7-7.04 14.88-7.04 19.65 0 1.25.12 2.3.45 3 .1.2.2.37.7.58 4.9 0 11.56-9.4 18.73-21.67 5.84-10.15 8.6-17.46 8.6-21.35 0-.73-.01-1.33-.25-1.7-.11-.19-.33-.2-.6-.2Zm-99.29 17.4a488.99 488.99 0 0 1-10.67 16.03c.9 3.38 2.12 6.33 3.52 8.4 1.17 1.75 2.44 2.94 3.82 2.94.46 0 .81-.31 1.14-.75.52-.7.93-1.76 1.28-3.08.81-3.12 1.18-7.62 1.18-12.75 0-3.7-.09-7.41-.27-10.78Zm282.05-17.55c-4.17.38-13.6 9.44-21.25 21.54-4.47 7.14-6.74 14.42-6.74 19.49 0 1.24.1 2.32.37 3.07.08.2.16.38.31.51 2.26 0 4.95-2.04 7.94-5.34 3.47-3.83 7.26-9.43 11.1-16.16 5.7-10.01 8.45-17.33 8.45-21.22a6.8 6.8 0 0 0-.18-1.89Z"/>
    </g>
    <g stroke="#6C6C6C" stroke-width="2">
      <path stroke-linecap="square" d="M19.4 144.52h576.66"/>
      <path fill="#FFFF7F" fill-rule="nonzero" d="m611.03 125.62-.61 14.67 13.86 4.93-14.17 3.95-.42 14.68-8.14-12.23-14.12 4.15 9.14-11.52-8.31-12.12 13.8 5.12 8.97-11.63Z"/>
    </g>
  </g>
</svg>
