<svg xmlns="http://www.w3.org/2000/svg" width="632" height="136">
  <g fill="none" fill-rule="evenodd">
    <path fill="#00283D" d="M10.8.5h610.4c3.6 0 4.9.4 6.2 1 1.3.8 2.3 1.8 3 3 .7 1.4 1.1 2.7 1.1 6.3v114.4a13 13 0 0 1-1 6.2 7.3 7.3 0 0 1-3 3c-1.4.7-2.7 1.1-6.3 1.1H10.8a13 13 0 0 1-6.2-1 7.3 7.3 0 0 1-3-3c-.7-1.4-1.1-2.7-1.1-6.3V10.8c0-3.6.4-4.9 1-6.2a7.3 7.3 0 0 1 3-3A13 13 0 0 1 10.9.5Z"/>
    <g stroke-linecap="round" stroke-linejoin="round" stroke-width="3.3">
      <path stroke="#FFF" d="M57.3 88.6h52.5a13.3 13.3 0 1 0-6.8-25.2 18 18 0 0 0-12-10.2m-45 0A18 18 0 0 0 46 88"/>
      <path stroke="#21FA90" d="m66.8 64.2-7 2.5 3.1 6.5"/>
      <path stroke="#21FA90" d="M60 66.8a16.8 16.8 0 1 0-8.4-14.5v25"/>
      <path stroke="#21FA90" d="M51.6 103.8v3" opacity=".2"/>
      <path stroke="#21FA90" d="M51.7 94.6v4.6" opacity=".4"/>
      <path stroke="#21FA90" d="M51.6 82.1v7.7" opacity=".7"/>
    </g>
    <path fill="#21FA90" fill-rule="nonzero" d="M147.6 89.5h9.5V77h6.6c9.2 0 14.9-5.4 14.9-13.7 0-8.2-5.6-13.8-14.6-13.8h-16.4v40Zm9.5-20V57.2h4.9c4.4 0 6.8 2.4 6.8 6.1 0 3.7-2.4 6.2-6.8 6.2h-4.9Zm35.7-20h-9.4v40h9.4zM207.4 90c4.2 0 7-1.6 8.7-4.7h.3v4.2h8.8V69.1c0-6.4-6-10-13.4-10-7.5 0-12.2 3.5-13.4 8.6l8.5 1.1c.5-1.8 2.2-3 4.8-3 2.6 0 4.1 1.1 4.1 3.2v.1c0 1.9-2 2.2-7 2.7-6.2.5-11.3 2.7-11.3 9.4 0 6 4.1 8.8 10 8.8Zm2.9-6.2c-2.3 0-3.9-1-3.9-3s1.6-3.2 4.3-3.6c1.8-.3 4.1-.7 5.2-1.3v3c0 2.9-2.5 5-5.6 5Zm37.3-24.3h-5.4v-7.2h-9.4v7.2h-4v7h4V81c0 5.8 3.4 8.8 9.7 8.8 1.8 0 3.8-.2 5.9-.7l-1.2-6.9c-.5.2-2 .4-2.6.4-1.7 0-2.4-.8-2.4-2.4V66.4h5.4v-7Zm22.6 0h-6v-1.7c0-1.8.7-2.9 3-2.9 1 0 2 .2 2.7.4l1.5-6.8c-1.1-.4-3.7-.9-6.3-.9-6 0-10.2 3.4-10.2 10.3v1.6h-5v7h5v23h9.3v-23h6v-7ZM288.8 90c9.4 0 15.1-6.2 15.1-15.4 0-9.3-5.7-15.5-15-15.5-9.5 0-15.1 6.2-15.1 15.5 0 9.2 5.6 15.5 15 15.5Zm0-7.1c-3.6 0-5.5-3.4-5.5-8.4s2-8.2 5.5-8.2c3.6 0 5.6 3.2 5.6 8.2 0 5-2 8.4-5.6 8.4Zm20.2 6.6h9.3V73.1c0-3.6 2.6-6 6-6 1.2 0 2.9.2 3.8.5v-8.2a12 12 0 0 0-2.7-.3c-3.3 0-6 2-7 5.9h-.3v-5.5H309v30Zm23 0h9.4V71.7c0-3.2 1.8-5 4.4-5 2.5 0 4.2 1.8 4.2 4.5v18.3h9v-18c0-2.9 1.6-4.8 4.3-4.8 2.4 0 4.2 1.6 4.2 4.7v18.1h9.4V69.3c0-6.4-4-10.2-9.7-10.2-4 0-7.9 2-9.7 7-1.5-5-4-7-7.7-7s-7 1.8-8.7 6.3l-.4-6H332v30.1Zm59.5.5c4.1 0 7-1.6 8.7-4.7h.2v4.2h8.8V69.1c0-6.4-5.9-10-13.3-10-7.6 0-12.3 3.5-13.5 8.6l8.5 1.1c.5-1.8 2.3-3 4.9-3 2.5 0 4 1.1 4 3.2v.1c0 1.9-2 2.2-7 2.7-6.1.5-11.2 2.7-11.2 9.4 0 6 4 8.8 9.9 8.8Zm2.8-6.2c-2.2 0-3.9-1-3.9-3s1.6-3.2 4.4-3.6c1.7-.3 4-.7 5.1-1.3v3c0 2.9-2.4 5-5.6 5Zm37.3-24.3h-5.4v-7.2h-9.4v7.2h-4v7h4V81c0 5.8 3.4 8.8 9.8 8.8 1.7 0 3.7-.2 5.8-.7l-1.2-6.9c-.5.2-2 .4-2.6.4-1.7 0-2.4-.8-2.4-2.4V66.4h5.4v-7Zm4.8 30h9.4v-30h-9.4v30Zm4.7-33.5c2.7 0 4.9-2 4.9-4.6 0-2.5-2.2-4.5-5-4.5-2.6 0-4.7 2-4.7 4.5s2.1 4.6 4.8 4.6ZM466 90c7.7 0 12.9-4.1 13.8-10.8l-8.7-1.4c-.5 3.2-2.3 5-5 5-3.7 0-5.7-3.1-5.7-8.3 0-5.1 2-8.2 5.6-8.2 2.8 0 4.5 1.8 5.1 5l8.7-1.5c-1-6.6-6.2-10.7-13.9-10.7-9.4 0-15 6.2-15 15.5 0 9.2 5.6 15.5 15 15.5Zm25.3 0a5 5 0 0 0 5.1-5 5 5 0 0 0-5-5 5 5 0 0 0-5.1 5 5 5 0 0 0 5 5Zm23.7 0c4.6 0 7.2-2.6 8.4-5.4h.4v4.9h9.2v-40h-9.4v15.1h-.2a8.7 8.7 0 0 0-8.5-5.5c-6.3 0-12 4.9-12 15.4C503 84.7 508.4 90 515 90Zm3.2-7.4c-3.6 0-5.6-3.2-5.6-8 0-5 2-8.2 5.6-8.2 3.6 0 5.7 3.1 5.7 8.1s-2.2 8.1-5.7 8.1Zm35 7.4c7.3 0 12.2-3.2 13.7-8.4l-8.4-1.4c-.7 2-2.6 3-5.2 3-3.5 0-5.9-2-6-6.4h20v-2.4c0-9.9-6-15.3-14.5-15.3-9 0-14.8 6.2-14.8 15.5 0 9.6 5.8 15.5 15.2 15.5Zm-5.9-18.7c.4-3.3 2.3-5.4 5.6-5.4s5.1 2 5.5 5.4h-11Zm33.3 18.2h10.9l10.9-30h-9.8l-4.4 14.7c-.8 2.7-1.4 5.4-2 8.3-.6-3-1.3-5.6-2.1-8.3l-4.5-14.7h-9.9l11 30Z"/>
  </g>
</svg>
